# xmcd CD database file
#
# Track frame offsets:
#	150
#	9918
#	19633
#	29429
#	40274
#	52714
#	62414
#	74704
#	85811
#	98542
#	112106
#	126174
#	134884
#	144166
#	155195
#	169968
#
# Disc length: 2399 seconds
#
# Revision: 2
# Processed by: cddbd v1.5.2PL0 Copyright (c) Steve Scherf et al.
# Submitted via: CDex 1.51
#
DISCID=d8095d10
DTITLE=Willie Nelson - Millenium Collection - Willie Nelson CD2
DYEAR=2000
DGENRE=Country
TTITLE0=Let's Pretend
TTITLE1=Half A Man
TTITLE2=I Didn't Sleep A Wink
TTITLE3=December Day
TTITLE4=Follow Me Around
TTITLE5=Ashamed
TTITLE6=Shelter Of My Arms
TTITLE7=I Hope So
TTITLE8=I Just Don't Understand
TTITLE9=Everything But You
TTITLE10=Will You Remember Me
TTITLE11=Why Are You Pickin' On Me
TTITLE12=One Step Beyond
TTITLE13=Go Away
TTITLE14=And, So Will You Love Me
TTITLE15=Pride Wins Again
EXTD=YEAR: 2000
EXTT0=
EXTT1=
EXTT2=
EXTT3=
EXTT4=
EXTT5=
EXTT6=
EXTT7=
EXTT8=
EXTT9=
EXTT10=
EXTT11=
EXTT12=
EXTT13=
EXTT14=
EXTT15=
PLAYORDER=
